PathFileType	4	(X/Y/Z)	Kaydara	
DataRate	CameraRate	NumFrames	NumMarkers	Units	OrigDataRate	OrigDataStartFrame	OrigNumFrames	
60.00	60.00	4	74	mm	60.00	989	121	
Frame#	Time	Z_lasi			Z_rasi			Z_rpsi			Z_lpsi			Z_fneck			Z_bneck			Z_fhead			Z_rhead			Z_lhead			Z_rshld			Z_relbtop			Z_relbext			Z_relblow			Z_rwrext			Z_rwrtop			Z_rwrlow			Z_lshld			Z_lelbext			Z_lelblow			Z_lelbtop			Z_lwrext			Z_lwrtop			Z_lwrlow			Z_rtopleg			Z_ltopleg			Z_rkneefr			Z_rkneebk			Z_rkneeis			Z_lkneefr			Z_lknssbk			Z_lkneeis			Z_rankfr			Z_rankis			Z_rankbk			Z_lankfr			Z_lankbk			Z_lankis			A_lasi			A_rasi			A_rpsi			A_lpsi			A_fneck			A_bneck			A_fhead			A_rhead			A_lhead			A_rshld			A_relbtop			A_relbext			A_relblow			A_rwrext			A_rwrtop			A_rwrlow			A_lshld			A_lelbext			A_lelblow			A_lelbtop			A_lwrext			A_lwrtop			A_lwrlow			A_rtopleg			A_ltopleg			A_rkneefr			A_rkneebk			A_rkneeis			A_lkneefr			A_lknssbk			A_lkneeis			A_rankfr			A_rankis			A_rankbk			A_lankfr			A_lankbk			A_lankis			
		X1	Y1	Z1	X2	Y2	Z2	X3	Y3	Z3	X4	Y4	Z4	X5	Y5	Z5	X6	Y6	Z6	X7	Y7	Z7	X8	Y8	Z8	X9	Y9	Z9	X10	Y10	Z10	X11	Y11	Z11	X12	Y12	Z12	X13	Y13	Z13	X14	Y14	Z14	X15	Y15	Z15	X16	Y16	Z16	X17	Y17	Z17	X18	Y18	Z18	X19	Y19	Z19	X20	Y20	Z20	X21	Y21	Z21	X22	Y22	Z22	X23	Y23	Z23	X24	Y24	Z24	X25	Y25	Z25	X26	Y26	Z26	X27	Y27	Z27	X28	Y28	Z28	X29	Y29	Z29	X30	Y30	Z30	X31	Y31	Z31	X32	Y32	Z32	X33	Y33	Z33	X34	Y34	Z34	X35	Y35	Z35	X36	Y36	Z36	X37	Y37	Z37	X38	Y38	Z38	X39	Y39	Z39	X40	Y40	Z40	X41	Y41	Z41	X42	Y42	Z42	X43	Y43	Z43	X44	Y44	Z44	X45	Y45	Z45	X46	Y46	Z46	X47	Y47	Z47	X48	Y48	Z48	X49	Y49	Z49	X50	Y50	Z50	X51	Y51	Z51	X52	Y52	Z52	X53	Y53	Z53	X54	Y54	Z54	X55	Y55	Z55	X56	Y56	Z56	X57	Y57	Z57	X58	Y58	Z58	X59	Y59	Z59	X60	Y60	Z60	X61	Y61	Z61	X62	Y62	Z62	X63	Y63	Z63	X64	Y64	Z64	X65	Y65	Z65	X66	Y66	Z66	X67	Y67	Z67	X68	Y68	Z68	X69	Y69	Z69	X70	Y70	Z70	X71	Y71	Z71	X72	Y72	Z72	X73	Y73	Z73	X74	Y74	Z74	

61	16.467	-209.96325	1081.08383	706.95763	-287.69165	1086.62682	513.26111	-126.10776	1109.49966	412.28424	-27.96373	1098.06519	638.43456	-214.57882	1444.40247	596.12141	-110.91150	1514.85168	592.46498	-334.89365	1613.84415	580.89386	-183.43206	1658.96393	522.89997	-192.45838	1644.42764	669.81621	-179.24797	1447.65244	389.93660	-253.33735	1143.55919	295.38433	-242.27673	1124.44717	355.78972	-294.00051	1205.77492	335.08011	-471.60194	1117.43408	448.42480	-483.91670	1156.19186	425.34847	-463.86517	1181.48392	453.42323	-90.74548	1437.45422	770.47806	-60.90675	1119.58031	794.02512	-115.20903	1146.17111	862.68997	-47.14799	1145.63026	861.00136	-154.18106	885.86227	890.92072	-137.95268	881.63315	935.46387	-92.70921	882.16423	921.51558	-185.45002	921.87454	378.07178	-122.32533	895.26833	739.08432	-253.97038	419.63478	416.38115	-186.40038	451.59225	365.02342	-187.67481	426.96590	488.65730	-184.94680	447.63470	697.59827	-80.24172	471.90315	677.05727	-181.18101	443.94245	604.43748	-207.92797	179.77812	382.73216	-182.74738	172.99885	444.02584	-131.28731	174.02632	373.17394	-122.52996	162.92822	680.94009	-67.82564	166.97277	619.21082	-148.52079	174.59015	614.44305	-975.13924	1031.83434	475.62138	-964.60068	1037.38136	634.56074	-1124.80568	1038.27782	654.29543	-1099.00429	1042.44080	472.15519	-1034.61487	1385.49332	570.73128	-1175.14793	1395.51041	563.97961	-1004.55734	1610.98465	580.11738	-1140.88036	1547.91122	664.18411	-1141.82495	1550.04654	500.59574	-1097.29370	1359.68155	744.58244	-947.09549	1124.84970	738.69514	-982.68295	1073.67325	721.91086	-949.32281	1130.28946	682.36122	-724.69650	1110.07729	653.55377	-729.75693	1143.65540	684.03557	-748.00507	1165.01305	655.74669	-1073.06778	1355.60547	392.47990	-1098.51181	1043.68370	371.52882	-1030.55824	1053.61610	394.87862	-1055.80589	1051.24191	346.74675	-999.39980	829.26903	386.44234	-1001.83662	828.95622	345.03960	-958.61542	839.88136	355.79475	-1069.50905	876.57913	734.87373	-1033.72803	890.81642	398.20892	-1027.07397	452.23694	642.64511	-1135.23659	486.89507	687.20169	-1114.28467	486.58195	569.10603	-1011.84235	464.15924	510.22804	-1097.16690	480.54260	414.85817	-1119.47914	479.52278	538.79601	-1099.04602	166.41447	664.10690	-1131.82289	163.43847	598.21350	-1180.43922	154.58845	666.88278	-1067.48093	166.65936	457.28889	-1128.51479	168.50756	421.80000	-1126.93985	173.45404	511.39759 
62	16.483	-209.72290	1080.74318	706.89476	-287.79673	1086.40762	513.28072	-126.22252	1109.61349	411.94218	-27.69777	1098.10799	638.20251	-216.44196	1444.31076	597.57996	-112.28229	1514.52026	593.73196	-336.26953	1614.40155	582.66048	-184.40130	1658.64548	524.89616	-193.66102	1643.31589	671.79245	-181.50330	1448.27774	391.12530	-257.57351	1144.71085	296.84841	-246.04206	1125.41077	357.05841	-298.08348	1207.07581	336.85272	-475.15167	1117.24350	450.56076	-487.60288	1156.21750	428.01876	-467.45148	1181.28273	456.18374	-90.70157	1436.58798	770.93132	-58.26252	1118.93578	791.33553	-111.39508	1144.68262	861.20331	-43.49851	1144.65866	858.39966	-148.72836	883.81989	887.38327	-131.74939	879.33128	931.67404	-87.56278	880.18578	917.97325	-185.22167	921.86554	377.60986	-122.01438	895.25131	738.69629	-253.94238	419.66038	416.24039	-186.29969	451.60160	364.92455	-187.55692	426.96259	488.41022	-184.92523	447.64336	697.55737	-80.12448	471.86314	676.75247	-181.30669	443.95611	604.35749	-207.96291	179.78401	382.67506	-182.84693	173.01796	443.99105	-131.37084	174.00499	373.15807	-122.70288	163.01891	680.89828	-68.10743	166.87136	619.28833	-148.65335	174.61113	614.40422	-975.00488	1031.70647	475.76817	-964.52911	1037.27501	634.66026	-1124.85023	1038.52013	654.38751	-1098.84384	1042.62085	472.23961	-1033.63838	1386.38123	570.56389	-1174.54506	1394.78302	563.72974	-1007.76443	1613.10440	580.96291	-1142.70973	1545.78781	664.24423	-1142.87613	1548.68668	500.55382	-1096.13487	1360.21713	744.13132	-944.92722	1126.61369	738.51776	-980.48119	1074.87900	722.65175	-947.12334	1131.50139	681.81107	-723.46298	1114.19624	651.68007	-728.54576	1148.37784	682.06757	-747.11266	1168.81775	653.38463	-1072.21992	1355.53192	392.31438	-1097.88208	1043.64960	371.51958	-1029.85977	1053.44833	394.89105	-1055.20699	1051.11839	346.81843	-999.62830	829.05029	386.46107	-1001.75446	828.73489	345.07740	-958.52180	839.55254	355.87868	-1069.84894	876.66557	734.90501	-1032.80556	890.30334	398.50895	-1027.50076	452.20753	642.86842	-1135.52696	486.92444	687.24586	-1114.62761	486.58260	569.14761	-1012.11609	464.14989	510.24971	-1097.36038	480.54932	414.81915	-1119.78615	479.55902	538.79128	-1099.17305	166.43734	664.18846	-1131.91559	163.46121	598.26633	-1180.51437	154.55744	666.88774	-1067.54341	166.72297	457.27657	-1128.55583	168.50334	421.76743	-1126.98769	173.46045	511.34064 
63	16.500	-209.60892	1080.32051	707.06436	-287.89436	1086.22986	513.29304	-126.26363	1109.79126	411.65920	-27.44741	1098.17390	638.00446	-218.31406	1443.89557	599.04861	-113.83605	1514.25537	595.10548	-337.96814	1614.20776	584.40113	-185.79264	1658.41324	527.16534	-195.39711	1641.92276	673.95256	-183.86765	1448.97110	392.45434	-261.90077	1146.06850	298.37059	-249.85493	1126.51161	358.37521	-301.97912	1208.13644	339.03954	-478.55511	1117.06192	452.89070	-491.29646	1156.03622	430.53818	-471.16810	1181.09009	458.74306	-90.89245	1435.81009	771.47812	-55.91849	1118.27232	788.68469	-108.10142	1143.10303	859.51614	-40.21413	1143.41881	855.64651	-144.19314	881.95084	883.80272	-126.64233	877.15050	927.76413	-82.46091	878.27972	913.30597	-185.01162	921.90239	377.33849	-121.64742	895.25352	738.29529	-253.86299	419.71703	416.11824	-185.96252	451.65051	364.80743	-187.55165	427.01881	488.25096	-184.65109	447.65526	697.31606	-79.86542	471.82461	676.37093	-181.18702	443.96877	604.16000	-207.94828	179.77985	382.60479	-182.87197	173.03679	443.98746	-131.44051	173.99220	373.16586	-122.79407	163.03156	681.00464	-68.28515	166.78062	619.21551	-148.70573	174.63102	614.32129	-974.84032	1031.69548	475.82401	-964.51805	1037.21634	634.79618	-1124.76547	1038.65532	654.36295	-1098.69057	1042.74612	472.34550	-1032.77481	1387.15042	570.33192	-1173.96629	1394.19403	563.47115	-1010.82001	1615.11780	581.89789	-1144.19113	1543.38440	664.49379	-1143.96271	1547.57126	500.75176	-1095.13092	1360.70755	743.65250	-942.61879	1128.32802	738.20084	-977.85110	1076.02478	723.11699	-945.00328	1132.83714	681.11557	-722.18506	1118.15338	649.94766	-727.20917	1152.97127	680.04478	-746.15196	1172.65266	650.93506	-1071.49330	1355.41031	392.10732	-1097.24426	1043.54851	371.60290	-1029.29657	1053.28659	394.94316	-1054.58229	1050.89600	346.93371	-999.56924	828.75160	386.48869	-1001.57547	828.47702	345.15186	-958.31276	839.16908	355.96012	-1070.09705	876.73622	734.92783	-1033.16490	890.23636	398.54866	-1027.73026	452.19704	642.94395	-1135.76073	486.94210	687.32544	-1114.89906	486.60324	569.24015	-1012.33437	464.14780	510.30491	-1097.52800	480.55618	414.81281	-1120.00687	479.59404	538.76106	-1099.26643	166.43913	664.22913	-1131.97968	163.46437	598.32279	-1180.60143	154.54746	666.94588	-1067.60468	166.76188	457.28210	-1128.62961	168.47729	421.82194	-1127.15858	173.47002	511.35555 
64	16.517	-210.05262	1079.85023	707.42088	-287.99341	1086.12953	513.33458	-126.31018	1110.09361	411.49662	-27.30011	1098.35976	637.81811	-220.01652	1443.34930	600.38452	-115.54266	1514.20074	596.68823	-340.16747	1613.12256	586.34846	-187.90546	1658.28781	530.09052	-197.93392	1640.29327	676.57280	-186.26698	1449.79095	393.88931	-266.02930	1147.49779	299.74726	-253.49451	1127.68387	359.52408	-305.73093	1209.11423	341.01379	-481.90113	1116.89354	454.92340	-494.82910	1156.06140	433.10555	-474.66625	1180.84549	461.70410	-91.10276	1435.07767	772.09534	-53.85367	1117.58316	785.92819	-105.27725	1141.56052	857.78244	-37.51382	1142.26707	853.29330	-140.51308	880.23071	880.03494	-122.28166	874.96017	923.65845	-78.23504	876.43784	908.72421	-184.68044	921.96396	377.07428	-120.99574	895.25162	737.87872	-253.62812	419.79893	415.92823	-185.51922	451.68411	364.70699	-187.66272	427.20573	488.35258	-184.06467	447.63287	696.80328	-78.91552	471.94771	675.38811	-180.64423	443.99490	603.71845	-207.85069	179.83767	382.55127	-182.83339	173.11535	443.93024	-131.38121	173.99477	373.12492	-122.58543	163.03194	680.83450	-68.17561	166.74410	618.89458	-148.69417	174.66717	614.17377	-974.69124	1031.67358	475.86239	-964.55338	1037.18651	634.93744	-1124.63699	1038.76404	654.37401	-1098.54202	1042.84241	472.43862	-1032.22084	1387.81174	570.11402	-1173.51883	1393.73444	563.18146	-1013.49060	1616.51123	582.88750	-1145.50133	1541.06339	664.70505	-1144.96017	1546.62918	500.91980	-1094.40269	1361.22543	743.14453	-940.49438	1130.05447	737.88101	-975.35080	1077.52525	723.50052	-943.85605	1134.07364	681.16646	-720.99510	1122.05238	648.48076	-726.06697	1157.46597	677.80243	-745.24406	1176.31973	648.44727	-1070.97694	1355.21271	391.82560	-1096.68716	1043.38539	371.72218	-1028.80638	1053.05832	395.06615	-1053.97263	1050.69717	346.97269	-999.35593	828.39897	386.57043	-1001.24222	828.23914	345.21420	-957.97867	838.81325	356.15013	-1070.25101	876.78574	734.95506	-1033.14377	890.26382	398.60832	-1027.88879	452.21748	642.99004	-1135.94772	486.95362	687.39639	-1115.09850	486.58524	569.29737	-1012.55020	464.02973	510.31441	-1097.61452	480.56705	414.78901	-1120.11414	479.58611	538.70678	-1099.32571	166.44207	664.27544	-1132.01378	163.45934	598.35499	-1180.64758	154.51241	666.95778	-1067.64305	166.77921	457.29557	-1128.62320	168.50323	421.74603	-1127.19078	173.46785	511.33610 
